<?xml version="1.0" encoding="UTF-8"?>
<svg version="1.1" xmlns="http://www.w3.org/2000/svg" width="750" height="750">
<path d="M0 0 C247.5 0 495 0 750 0 C750 247.5 750 495 750 750 C502.5 750 255 750 0 750 C0 502.5 0 255 0 0 Z " fill="#4086CC" transform="translate(0,0)"/>
<path d="M0 0 C0 0.99 0 1.98 0 3 C-0.66 3.66 -1.32 4.32 -2 5 C-2.33 5.99 -2.66 6.98 -3 8 C-4.84765625 9.82421875 -4.84765625 9.82421875 -7.0625 11.6875 C-7.79597656 12.31011719 -8.52945312 12.93273437 -9.28515625 13.57421875 C-9.85105469 14.04472656 -10.41695312 14.51523438 -11 15 C-10.34 15.66 -9.68 16.32 -9 17 C-9.66 17.66 -10.32 18.32 -11 19 C-9.35 18.67 -7.7 18.34 -6 18 C-7.10095362 21.30286086 -7.6896019 21.78510901 -10.4375 23.6875 C-11.05496094 24.12449219 -11.67242188 24.56148437 -12.30859375 25.01171875 C-14 26 -14 26 -16 26 C-16.2475 26.53625 -16.495 27.0725 -16.75 27.625 C-18.29814886 30.56648283 -20.13010957 33.25359843 -22 36 C-22.66 36.99 -23.32 37.98 -24 39 C-22.68 39 -21.36 39 -20 39 C-19.34 39.66 -18.68 40.32 -18 41 C-19.485 42.98 -19.485 42.98 -21 45 C-20.401875 44.690625 -19.80375 44.38125 -19.1875 44.0625 C-17 43 -17 43 -14 42 C-14 42.66 -14 43.32 -14 44 C-14.66 44 -15.32 44 -16 44 C-16.66 45.65 -17.32 47.3 -18 49 C-18.66 49 -19.32 49 -20 49 C-20.2578125 49.57234375 -20.515625 50.1446875 -20.78125 50.734375 C-22.11365942 53.21128995 -23.65056118 55.1341166 -25.5 57.25 C-26.1084375 57.95640625 -26.716875 58.6628125 -27.34375 59.390625 C-29 61 -29 61 -31 61 C-31.33 61.99 -31.66 62.98 -32 64 C-31.34 64.66 -30.68 65.32 -30 66 C-30 66.33 -30 66.66 -30 67 C-28.515 66.01 -28.515 66.01 -27 65 C-28.54127351 68.71268094 -30.80843234 70.98115698 -33.6875 73.75 C-37.40556852 77.3880527 -40.89763765 81.09811876 -44.26953125 85.0546875 C-46.8008886 87.90032172 -49.54185096 90.51720209 -52.30078125 93.140625 C-54.00666837 95.00729688 -54.89770523 96.74727533 -56 99 C-57.33333333 99.66666667 -58.66666667 100.33333333 -60 101 C-61.05021103 102.84971696 -61.05021103 102.84971696 -62 105 C-64 107.75 -64 107.75 -66 110 C-66.66 110 -67.32 110 -68 110 C-68.24621094 110.55429687 -68.49242187 111.10859375 -68.74609375 111.6796875 C-72.94793713 119.45506124 -79.88421634 126.02535939 -85.8046875 132.5234375 C-88.71797177 135.80995392 -91.43449046 139.23428554 -94.15625 142.6796875 C-98.1526459 147.70905014 -102.25860513 152.65372137 -107 157 C-107.66 157 -108.32 157 -109 157 C-109.2475 157.556875 -109.495 158.11375 -109.75 158.6875 C-112.35640933 163.50935727 -116.11049963 167.19693297 -120 171 C-121.58645213 172.55933329 -123.16955278 174.1220808 -124.75 175.6875 C-125.52859375 176.45449219 -126.3071875 177.22148437 -127.109375 178.01171875 C-129.05230615 179.8610699 -129.05230615 179.8610699 -130 182 C-130.66 182 -131.32 182 -132 182 C-132.24387451 182.56984619 -132.48774902 183.13969238 -132.73901367 183.72680664 C-134.2288452 186.41254166 -135.98905176 188.21475173 -138.17578125 190.37109375 C-139.00400391 191.19287109 -139.83222656 192.01464844 -140.68554688 192.86132812 C-141.98588867 194.1365332 -141.98588867 194.1365332 -143.3125 195.4375 C-144.16779297 196.28376953 -145.02308594 197.13003906 -145.90429688 198.00195312 C-147.50724073 199.58751416 -149.11223573 201.17100627 -150.7199707 202.75170898 C-153.15845366 205.15624796 -155.58036668 207.57648526 -158 210 C-159.29482476 211.29501899 -160.58975716 212.58993035 -161.88476562 213.88476562 C-162.60901733 214.60901733 -163.33326904 215.33326904 -164.07946777 216.07946777 C-191.11523437 243.11523437 -191.11523437 243.11523437 -193.162323 245.16146851 C-194.28647251 246.28614073 -195.40968959 247.41174714 -196.53128052 248.53897095 C-199.56042203 251.58189183 -202.69228279 254.49440402 -205.875 257.375 C-209.18504171 260.38321573 -212.45554304 263.40519957 -215.5625 266.625 C-219.16590581 270.29837485 -223.15813798 273.44676643 -227.1640625 276.66796875 C-229.91780622 278.9324109 -232.55806109 281.28055208 -235.1875 283.6875 C-238.73414061 286.92451325 -242.37694826 289.84303267 -246.2578125 292.6640625 C-248.72895041 294.55897095 -250.83057746 296.77194442 -253 299 C-253.9075 299.70125 -254.815 300.4025 -255.75 301.125 C-258.25052455 302.87431597 -258.25052455 302.87431597 -259 306 C-260.80933932 307.0786446 -262.61963252 308.15570882 -264.43359375 309.2265625 C-267.68869499 311.47590187 -270.45156608 314.08926485 -273.3125 316.8125 C-288.30215876 331 -288.30215876 331 -294 331 C-294.825 331.680625 -295.65 332.36125 -296.5 333.0625 C-297.325 333.701875 -298.15 334.34125 -299 335 C-299.99 334.67 -300.98 334.34 -302 334 C-301.67 333.01 -301.34 332.02 -301 331 C-302.43952597 332.10152406 -303.87654071 333.2063304 -305.3125 334.3125 C-306.11300781 334.92738281 -306.91351563 335.54226563 -307.73828125 336.17578125 C-309.9757112 337.9028046 -309.9757112 337.9028046 -311.66796875 339.73046875 C-313 341 -313 341 -315 341 C-314.67 339.68 -314.34 338.36 -314 337 C-315.11375 337.66 -316.2275 338.32 -317.375 339 C-320.75 341 -320.75 341 -323 341 C-323 340.01 -323 339.02 -323 338 C-323.42667969 338.32871094 -323.85335937 338.65742187 -324.29296875 338.99609375 C-330.71188303 343.87976255 -337.32417788 348.47703176 -344 353 C-345.03640625 353.70382812 -346.0728125 354.40765625 -347.140625 355.1328125 C-348.10484375 355.76960938 -349.0690625 356.40640625 -350.0625 357.0625 C-351.34833984 357.91521484 -351.34833984 357.91521484 -352.66015625 358.78515625 C-355 360 -355 360 -359 360 C-359 360.66 -359 361.32 -359 362 C-360.65 362 -362.3 362 -364 362 C-363 359 -363 359 -360 357 C-360.66 356.34 -361.32 355.68 -362 355 C-362.68707031 355.42152344 -363.37414062 355.84304688 -364.08203125 356.27734375 C-364.98308594 356.82519531 -365.88414062 357.37304688 -366.8125 357.9375 C-368.15248047 358.75541016 -368.15248047 358.75541016 -369.51953125 359.58984375 C-372 361 -372 361 -375 362 C-374.6875 360.125 -374.6875 360.125 -374 358 C-373.01 357.34 -372.02 356.68 -371 356 C-371 355.01 -371 354.02 -371 353 C-370.154375 352.855625 -369.30875 352.71125 -368.4375 352.5625 C-363.49292464 350.31496575 -360.82841424 346.56598001 -358 342 C-357.83113281 341.30648438 -357.66226563 340.61296875 -357.48828125 339.8984375 C-356.8799324 337.53317715 -355.7518855 336.64681312 -354 335 C-356.94129904 336.9317797 -359.87734417 338.87140152 -362.8125 340.8125 C-363.64587891 341.35970703 -364.47925781 341.90691406 -365.33789062 342.47070312 C-366.14033203 343.00244141 -366.94277344 343.53417969 -367.76953125 344.08203125 C-368.50792236 344.56905518 -369.24631348 345.0560791 -370.00708008 345.55786133 C-371.87415913 346.90893765 -373.42654215 348.32208022 -375 350 C-375.66 349.67 -376.32 349.34 -377 349 C-377 348.67 -377 348.34 -377 348 C-380.72664343 348.55185486 -383.08352644 349.48445546 -386.125 351.6875 C-398.99426981 360.61191826 -398.99426981 360.61191826 -406 362 C-406 360 -406 360 -404 358 C-408.23322844 358.62045463 -411.52290295 360.10523559 -415.3125 362.0625 C-416.38113281 362.61035156 -417.44976562 363.15820312 -418.55078125 363.72265625 C-419.35902344 364.14417969 -420.16726563 364.56570313 -421 365 C-419.44648311 360.6225669 -417.81243153 358.70883293 -414 356 C-414.99 356.33 -415.98 356.66 -417 357 C-417 356.34 -417 355.68 -417 355 C-415.42578125 353.74609375 -415.42578125 353.74609375 -413.3125 352.4375 C-412.62800781 352.00308594 -411.94351563 351.56867188 -411.23828125 351.12109375 C-409 350 -409 350 -406.61865234 349.60498047 C-403.73225733 348.9381441 -402.20447005 347.98627671 -399.86328125 346.19921875 C-398.75049805 345.35133789 -398.75049805 345.35133789 -397.61523438 344.48632812 C-396.47538086 343.5959082 -396.47538086 343.5959082 -395.3125 342.6875 C-394.54099609 342.10548828 -393.76949219 341.52347656 -392.97460938 340.92382812 C-389.34822961 338.12724006 -386.96210149 336.1789169 -385 332 C-382.96875 330.359375 -382.96875 330.359375 -380.5 328.75 C-375.09089377 325.10253956 -370.04813896 321.12750572 -365 317 C-364.08992188 316.26523437 -363.17984375 315.53046875 -362.2421875 314.7734375 C-356.3530732 309.99981003 -350.61747932 305.09040719 -345 300 C-346.98 299.34 -348.96 298.68 -351 298 C-351 297.34 -351 296.68 -351 296 C-352.65 295.34 -354.3 294.68 -356 294 C-356.66 295.32 -357.32 296.64 -358 298 C-360.64 297.67 -363.28 297.34 -366 297 C-366 297.66 -366 298.32 -366 299 C-366.99 298.67 -367.98 298.34 -369 298 C-369.52144483 296.0119916 -370.03589705 294.02087788 -370.46875 292.01171875 C-371.13667693 289.48243664 -372.15395577 287.84604423 -374 286 C-374.66 286 -375.32 286 -376 286 C-375.54857225 284.22739369 -375.08859477 282.4569632 -374.625 280.6875 C-374.24214844 279.20830078 -374.24214844 279.20830078 -373.8515625 277.69921875 C-373 275 -373 275 -371 272 C-370.33669687 269.68278383 -369.74310692 267.34537049 -369.1875 265 C-368.83834843 263.55441923 -368.48803811 262.10911796 -368.13671875 260.6640625 C-367.95286621 259.90383789 -367.76901367 259.14361328 -367.57958984 258.36035156 C-365.82470408 251.21366432 -363.90699068 244.10730407 -362 237 C-361.6596875 235.72640625 -361.319375 234.4528125 -360.96875 233.140625 C-359.07211749 226.25768445 -356.79346887 219.66059244 -354.15625 213.02734375 C-353.11746666 210.30755628 -352.24029362 207.60918866 -351.4375 204.8125 C-350.24177764 200.65753178 -348.75063782 196.70724856 -347.10546875 192.7109375 C-345.83504715 189.59548666 -344.63539324 186.45652011 -343.4375 183.3125 C-342.11948009 179.86785902 -340.79240312 176.44086471 -339.3125 173.0625 C-337.98096874 170.07266479 -337.98096874 170.07266479 -337.0625 167.1875 C-335.14184118 161.42552355 -332.80558208 155.81442903 -330.375 150.25 C-328.97335002 147.0645956 -328.97335002 147.0645956 -328 143.9375 C-327 141 -327 141 -325.5625 138.3125 C-324.16019284 135.33960883 -323.39905776 132.79557556 -322.625 129.625 C-321.44745937 125.01505372 -319.7477604 121.62848815 -317.07421875 117.7265625 C-315.72257392 115.55410062 -315.23771586 113.53563587 -315 111 C-314.34 111 -313.68 111 -313 111 C-312.80470703 109.91525391 -312.80470703 109.91525391 -312.60546875 108.80859375 C-311.04125238 101.55264812 -307.90339183 94.71035745 -304.9375 87.9375 C-302.51771796 82.38119036 -300.53911795 76.85944905 -299 71 C-310.49520256 72.23276952 -310.49520256 72.23276952 -321.82421875 74.45703125 C-323.42006032 74.85527538 -325.02970281 75.19924825 -326.64453125 75.51171875 C-335.90256088 77.45751614 -343.75565584 81.52166888 -352 86 C-353.1240625 86.60457031 -354.248125 87.20914063 -355.40625 87.83203125 C-360.91897815 90.91553955 -365.61700301 94.20415662 -370.25390625 98.484375 C-372.64504406 100.55990402 -375.03939498 101.89837953 -378 103 C-379.485 102.505 -379.485 102.505 -381 102 C-379.02 99.36 -377.04 96.72 -375 94 C-391.04979251 102.52645227 -404.56645101 114.80296248 -416.609375 128.3203125 C-420.53389561 132.71936665 -420.53389561 132.71936665 -422 134 C-422.66 134 -423.32 134 -424 134 C-424 133.01 -424 132.02 -424 131 C-424.99 131.33 -425.98 131.66 -427 132 C-427.33 129.69 -427.66 127.38 -428 125 C-429.423125 125.99 -429.423125 125.99 -430.875 127 C-434 129 -434 129 -436 129 C-436 128.34 -436 127.68 -436 127 C-437.32 127 -438.64 127 -440 127 C-440.18175781 126.37351562 -440.36351562 125.74703125 -440.55078125 125.1015625 C-440.80214844 124.28429687 -441.05351562 123.46703125 -441.3125 122.625 C-441.55613281 121.81289063 -441.79976562 121.00078125 -442.05078125 120.1640625 C-442.91368185 117.66815371 -442.91368185 117.66815371 -446 116 C-445.09735101 108.47792511 -443.44039834 103.16721992 -439 97 C-438.3644519 96.11646851 -438.3644519 96.11646851 -437.71606445 95.21508789 C-434.08775773 90.26739691 -430.16203639 85.75673059 -425.9375 81.3125 C-425.33873047 80.67505859 -424.73996094 80.03761719 -424.12304688 79.38085938 C-421.53986889 76.63923893 -418.93512094 73.93558371 -416.26171875 71.28125 C-414.31995741 69.32272043 -412.60034595 67.33289091 -410.875 65.1875 C-407.24740049 60.97121109 -403.04800964 57.98178331 -398.5078125 54.80859375 C-395.69512696 52.7801305 -393.38221259 50.51455773 -391 48 C-384.61156642 42.03226814 -378.85938334 38.41429829 -370.375 36.1875 C-363.77367312 34.43137778 -358.5994955 31.86703224 -352.7421875 28.390625 C-350 27 -350 27 -346 27 C-346 26.34 -346 25.68 -346 25 C-344.68 25 -343.36 25 -342 25 C-342 24.34 -342 23.68 -342 23 C-335.89581982 21.25926421 -329.84526216 19.67801255 -323.58203125 18.625 C-321.34070647 18.08247055 -319.39952001 17.39319873 -317.265625 16.54296875 C-297.65980897 9.03824103 -269.73516345 9.17921874 -249.5625 14.125 C-248.79542725 14.31255859 -248.02835449 14.50011719 -247.23803711 14.69335938 C-241.70327225 16.29125439 -237.21422479 19.06496348 -233 23 C-231.875 25.5 -231.875 25.5 -231 28 C-230.00484375 28.84433594 -229.0096875 29.68867188 -227.984375 30.55859375 C-225.31200369 33.15931972 -224.55951171 34.84652821 -224.3359375 38.56640625 C-224.3201398 40.23174681 -224.33379584 41.89759431 -224.375 43.5625 C-224.50882368 51.54258187 -224.50882368 51.54258187 -220 58 C-216.95041889 63.95604108 -216.7778472 69.96548797 -217.125 76.5 C-217.17563599 77.56021362 -217.17563599 77.56021362 -217.22729492 78.6418457 C-217.3828125 80.65625 -217.3828125 80.65625 -218 84 C-218.99 84.66 -219.98 85.32 -221 86 C-223.8604183 91.03810301 -224.09671994 96.07396947 -223.875 101.75 C-223.63703702 111.29955799 -227.08927225 118.98041359 -232 127 C-236.00473727 134.34201833 -239.05928611 141.75552939 -241.77734375 149.65625 C-243.69669039 154.90532578 -245.8719068 160.38215385 -249.42578125 164.75390625 C-251.72427487 168.03339467 -253.06218229 171.61306041 -254.5625 175.3125 C-255.27101187 177.02390308 -255.98070054 178.73481931 -256.69140625 180.4453125 C-257.06539551 181.34797852 -257.43938477 182.25064453 -257.82470703 183.18066406 C-263.05732472 195.73285956 -268.37387903 208.24085985 -274.6640625 220.30541992 C-276.42884084 223.48375138 -276.42884084 223.48375138 -277 227 C-275.02 223.04 -273.04 219.08 -271 215 C-270.67 215.66 -270.34 216.32 -270 217 C-270.98480517 219.76697526 -272.034372 222.42901884 -273.1875 225.125 C-273.49236328 225.85976563 -273.79722656 226.59453125 -274.11132812 227.3515625 C-277.06444435 234.38456046 -279.93496068 241.21138363 -285 247 C-284.54625 246.505 -284.0925 246.01 -283.625 245.5 C-282 244 -282 244 -280 244 C-279.76796875 243.44828125 -279.5359375 242.8965625 -279.296875 242.328125 C-277.65178865 239.37489769 -275.56837049 237.20887779 -273.25 234.75 C-270.32028482 231.64054769 -267.62868708 228.55678323 -265.10546875 225.109375 C-262.03776967 220.95148559 -258.62997941 217.23058923 -255.0625 213.5 C-253.81411835 212.18061957 -252.56670914 210.86031829 -251.3203125 209.5390625 C-250.73668945 208.92063477 -250.15306641 208.30220703 -249.55175781 207.66503906 C-247.79349865 205.77842366 -246.10399032 203.84296595 -244.4375 201.875 C-240.78131082 197.61409759 -236.75306497 193.73085478 -232.76635742 189.78344727 C-229.25535443 186.29376924 -225.89089289 182.73912051 -222.6796875 178.96875 C-220.61529927 176.54909496 -218.49886723 174.1800897 -216.375 171.8125 C-215.66085937 171.01457031 -214.94671875 170.21664062 -214.2109375 169.39453125 C-211.87127396 166.8605847 -209.43858596 164.43858596 -207 162 C-202.43934694 157.09473168 -197.95359458 152.12019448 -193.5625 147.0625 C-190.55008455 143.59929554 -187.47265698 140.19931982 -184.375 136.8125 C-183.91939697 136.31306885 -183.46379395 135.8136377 -182.99438477 135.29907227 C-180.88381816 132.99861975 -178.74655197 130.75094241 -176.51953125 128.5625 C-173.04806038 125.03182575 -169.96171249 121.21780542 -166.84179688 117.37695312 C-165.60322538 115.88212546 -164.30595109 114.43633591 -163 113 C-162.34 113 -161.68 113 -161 113 C-160.67708984 112.18208984 -160.67708984 112.18208984 -160.34765625 111.34765625 C-158.53880879 108.19659155 -156.0435661 105.92052428 -153.4375 103.4375 C-149.42647742 99.53776104 -145.72910228 95.58343377 -142.25 91.1875 C-139.08617282 87.20130618 -135.81498699 83.92465618 -131.91015625 80.6796875 C-127.62764246 76.91387783 -124.10450201 72.38770765 -120.5625 67.9375 C-117.92039308 64.90874328 -115.11707511 62.40108425 -112.0546875 59.8125 C-109.39830229 57.46922483 -107.01680226 54.9093326 -104.640625 52.28515625 C-103 51 -103 51 -99 51 C-97.31301918 50.38655243 -95.64034193 49.72904086 -94 49 C-94.66 50.32 -95.32 51.64 -96 53 C-92.86681984 53.32880007 -92.86681984 53.32880007 -90.6953125 50.98828125 C-89.42300781 49.66376953 -89.42300781 49.66376953 -88.125 48.3125 C-87.28195312 47.44238281 -86.43890625 46.57226562 -85.5703125 45.67578125 C-84.29800781 44.35126953 -84.29800781 44.35126953 -83 43 C-81.33465766 41.33201006 -79.66794724 39.66538511 -78 38 C-77.05497533 37.03354281 -76.11100442 36.06605434 -75.16796875 35.09765625 C-62.59276833 22.24658306 -62.59276833 22.24658306 -58 20 C-57.01 20.33 -56.02 20.66 -55 21 C-51.81711646 19.12821884 -51.81711646 19.12821884 -49 17 C-49.165 17.598125 -49.33 18.19625 -49.5 18.8125 C-50.1114124 21.11344336 -50.1114124 21.11344336 -50 24 C-50.33 24.99 -50.66 25.98 -51 27 C-50.5875 26.57589844 -50.175 26.15179688 -49.75 25.71484375 C-45.3477045 21.24376238 -40.78463372 17.05673026 -36 13 C-35.25363281 12.31808594 -34.50726562 11.63617188 -33.73828125 10.93359375 C-31.5499471 9.03505597 -29.54894609 7.37953713 -27 6 C-23.0625 6.5625 -23.0625 6.5625 -20 8 C-17.0953311 8 -15.4443726 6.51318304 -13 5 C-11.67391178 4.31903578 -10.34313399 3.64669414 -9 3 C-8.67 3.66 -8.34 4.32 -8 5 C-7.05125 4.175 -6.1025 3.35 -5.125 2.5 C-2.25 0 -2.25 0 0 0 Z " fill="#FCFCFC" transform="translate(621,195)"/>
<path d="M0 0 C-1.28965176 1.37562854 -2.62689293 2.70766393 -4 4 C-4.66 4 -5.32 4 -6 4 C-6 4.9075 -6 5.815 -6 6.75 C-7 10 -7 10 -8.84765625 11.2890625 C-10.87305826 12.28211675 -12.89684538 13.18556655 -15 14 C-13.64978174 9.58110387 -11.73884332 7.65654657 -8 5 C-8.99 5.33 -9.98 5.66 -11 6 C-11 5.34 -11 4.68 -11 4 C-9.35546875 2.67578125 -9.35546875 2.67578125 -7.1875 1.3125 C-6.47980469 0.85488281 -5.77210938 0.39726563 -5.04296875 -0.07421875 C-3 -1 -3 -1 0 0 Z " fill="#E8EEF6" transform="translate(215,546)"/>
<path d="M0 0 C0.33 0.66 0.66 1.32 1 2 C1.66 2 2.32 2 3 2 C2 4 2 4 0.60546875 5.796875 C-1.13419161 8.18414615 -2.39539045 10.59593713 -3.6875 13.25 C-4.12449219 14.14203125 -4.56148438 15.0340625 -5.01171875 15.953125 C-5.33785156 16.62859375 -5.66398437 17.3040625 -6 18 C-7.42600325 13.72199024 -5.45637064 11.13234078 -3.5625 7.3125 C-3.22412109 6.61060547 -2.88574219 5.90871094 -2.53710938 5.18554688 C-1.70018652 3.45276294 -0.85122607 1.72580248 0 0 Z " fill="#6B9DD0" transform="translate(349,407)"/>
<path d="M0 0 C2.0625 0.4375 2.0625 0.4375 4 1 C4 3.31 4 5.62 4 8 C2.68 8 1.36 8 0 8 C-0.38063221 5.6739143 -0.71269945 3.33944736 -1 1 C-0.67 0.67 -0.34 0.34 0 0 Z " fill="#BDC9F2" transform="translate(392,233)"/>
<path d="M0 0 C0.66 0 1.32 0 2 0 C2 0.66 2 1.32 2 2 C3.32 2 4.64 2 6 2 C5.67 2.99 5.34 3.98 5 5 C5 4.34 5 3.68 5 3 C4.236875 3.680625 3.47375 4.36125 2.6875 5.0625 C1.800625 5.701875 0.91375 6.34125 0 7 C-0.99 6.67 -1.98 6.34 -3 6 C-2.505 5.195625 -2.01 4.39125 -1.5 3.5625 C0.08419653 1.35103815 0.08419653 1.35103815 0 0 Z M3 5 C3.99 5.495 3.99 5.495 5 6 C4.01 6.495 4.01 6.495 3 7 C3 6.34 3 5.68 3 5 Z " fill="#45ADDC" transform="translate(602,234)"/>
<path d="M0 0 C-1.28965176 1.37562854 -2.62689293 2.70766393 -4 4 C-4.66 4 -5.32 4 -6 4 C-6.33 4.66 -6.66 5.32 -7 6 C-8.32 6 -9.64 6 -11 6 C-11 5.34 -11 4.68 -11 4 C-9.35546875 2.67578125 -9.35546875 2.67578125 -7.1875 1.3125 C-6.47980469 0.85488281 -5.77210938 0.39726563 -5.04296875 -0.07421875 C-3 -1 -3 -1 0 0 Z " fill="#B7CBE5" transform="translate(215,546)"/>
<path d="M0 0 C0.66 0.33 1.32 0.66 2 1 C1.67 1.99 1.34 2.98 1 4 C0.34 4 -0.32 4 -1 4 C-1.28875 4.5775 -1.5775 5.155 -1.875 5.75 C-2.91666667 7.83333333 -3.95833333 9.91666667 -5 12 C-5.99 11.67 -6.98 11.34 -8 11 C-7.195625 10.0925 -6.39125 9.185 -5.5625 8.25 C-3.53816043 5.84467517 -2.57838848 4.1232978 -2 1 C-1.34 0.67 -0.68 0.34 0 0 Z " fill="#D6D5F5" transform="translate(248,286)"/>
<path d="M0 0 C1.1875 1.6875 1.1875 1.6875 2 4 C0.75 6.75 0.75 6.75 -1 9 C-1.66 9 -2.32 9 -3 9 C-3.28875 9.639375 -3.5775 10.27875 -3.875 10.9375 C-5 13 -5 13 -7 14 C-5.97301702 11.00463298 -4.93841555 8.92348598 -2.9375 6.4375 C-1.11014439 4.13856875 -0.4220404 2.84877273 0 0 Z " fill="#6AA2D1" transform="translate(342,430)"/>
<path d="M0 0 C-1.67711101 3.61223909 -3.33438885 7.16719443 -7 9 C-7.33 7.35 -7.66 5.7 -8 4 C-2.25 0 -2.25 0 0 0 Z " fill="#8177E8" transform="translate(246,289)"/>
<path d="M0 0 C0.66 0 1.32 0 2 0 C2 0.99 2 1.98 2 3 C1.34 3.66 0.68 4.32 0 5 C-0.33 5.99 -0.66 6.98 -1 8 C-3.475 7.01 -3.475 7.01 -6 6 C-4 4 -2 2 0 0 Z " fill="#C1E1F4" transform="translate(619,195)"/>
<path d="M0 0 C0.33 0.66 0.66 1.32 1 2 C2.65 1.34 4.3 0.68 6 0 C6 2 6 2 3.6875 4.625 C1 7 1 7 -2 7 C-1.34 6.34 -0.68 5.68 0 5 C-0.66 4.34 -1.32 3.68 -2 3 C-1.34 2.01 -0.68 1.02 0 0 Z " fill="#85C9E6" transform="translate(590,256)"/>
<path d="M0 0 C0.33 0.99 0.66 1.98 1 3 C1.66 3.33 2.32 3.66 3 4 C1.35 5.65 -0.3 7.3 -2 9 C-2.66 8.67 -3.32 8.34 -4 8 C-3.34 7.34 -2.68 6.68 -2 6 C-2.33 5.34 -2.66 4.68 -3 4 C-2.01 2.68 -1.02 1.36 0 0 Z " fill="#5DAEE1" transform="translate(572,214)"/>
<path d="M0 0 C1.65 0 3.3 0 5 0 C4.34 1.98 3.68 3.96 3 6 C1.68 5.67 0.36 5.34 -1 5 C-0.67 3.35 -0.34 1.7 0 0 Z " fill="#D1DEF0" transform="translate(268,477)"/>
<path d="M0 0 C0.66 0 1.32 0 2 0 C2 0.66 2 1.32 2 2 C1.34 2 0.68 2 0 2 C-0.66 3.65 -1.32 5.3 -2 7 C-2.33 6.34 -2.66 5.68 -3 5 C-4.32 5 -5.64 5 -7 5 C-6.67 4.34 -6.34 3.68 -6 3 C-4.66923011 2.65657551 -3.33568021 2.32380126 -2 2 C-1.34 1.34 -0.68 0.68 0 0 Z " fill="#C7E6F3" transform="translate(605,237)"/>
<path d="M0 0 C0.99 0 1.98 0 3 0 C3.33 0.99 3.66 1.98 4 3 C2.35 4.65 0.7 6.3 -1 8 C-1.66 7.67 -2.32 7.34 -3 7 C-2.2575 6.38125 -2.2575 6.38125 -1.5 5.75 C0.43386092 3.87797662 0.43386092 3.87797662 0 0 Z " fill="#A8D2F1" transform="translate(523,248)"/>
<path d="M0 0 C0.33 0.66 0.66 1.32 1 2 C1.66 2.33 2.32 2.66 3 3 C0.525 4.485 0.525 4.485 -2 6 C-2 4.35 -2 2.7 -2 1 C-1.34 0.67 -0.68 0.34 0 0 Z " fill="#5691C2" transform="translate(259,549)"/>
</svg>
